# xmcd CD database file
#
# Track frame offsets:
#	150
#	20276
#	24105
#	26988
#	62292
#	64691
#	84603
#	87420
#	91715
#	115877
#	120289
#	123312
#	128665
#	130720
#	140471
#	141224
#	146462
#	147134
#	162672
#	167154
#	169413
#	180848
#	181422
#	184650
#	185252
#	191279
#	192439
#	193293
#	224344
#	227705
#	231578
#
# Disc length: 3127 seconds
#
# Revision: 0
# Processed by: cddbd v1.5.2PL0 Copyright (c) Steve Scherf et al.
# Submitted via: CDex 1.51
#
DISCID=b10c351f
DTITLE=Dave Van Ronk - Blues and Ragtime Fingerstyle Guitar
DYEAR=2001
DGENRE=Blues
TTITLE0=Performance of St. Louis Tickle
TTITLE1=Intro to St. Louis Tickle
TTITLE2=Tuning
TTITLE3=Teaching of opening position of Section A of St. Louis Tickle
TTITLE4=Plays opening twelve bars to St. Louis Tickle
TTITLE5=Contiues teaching from thirteenth bar of St. Louis Tickle
TTITLE6=Teaches ending to Section A of St. Louis Tickle
TTITLE7=Plays slowly Section A of St. Louis Tickle
TTITLE8=Teaching of Section B of St. Louis Tickle
TTITLE9=Plays slowly Section B of St. Louis Tickle
TTITLE10=Talk on Jelly Roll Morton's Buddy Bolden's Blues
TTITLE11=Teaching of first four bars of Section C of St. Louis Tickle
TTITLE12=Plays slowly first four bars of Section C of St. Louis Tickle
TTITLE13=Teaching from fifth bar to Section C of St. Louis Tickle
TTITLE14=Plays slowly fifth and sixth bars of Section C of St. Louis Tickle
TTITLE15=Teachhing from seventh bar of Section C of St. Louis Tickle
TTITLE16=Plays slowly seventh and eighth bars of Section  of St. Louis Tickle
TTITLE17=Continues teaching to end of Section C of St. Louis Tickle
TTITLE18=Plays slowly Section C of St. Louis Tickle
TTITLE19=Plays up to tempo Section B of St. Louis Tickle
TTITLE20=Teaching of first two bars of Section D of St. Louis Tickle
TTITLE21=Plays slowly first two bars of Section D of St. Louis Tickle
TTITLE22=Talk about stretch needed for first two bars of Section D of St. Louis Tickle
TTITLE23=Plays slowly again first two bars of Section D of St. Louis Tickle
TTITLE24=Teaching of third and fourth bars of Section D of St. Louis Tickle
TTITLE25=Plays slowly third and fourth bars of Section D of St. Louis Tickle
TTITLE26=Plays slowly first four bars of Section D of St. Louis Tickle
TTITLE27=Teaching from fifth bar of Section D of St. Louis Tickle
TTITLE28=Plays slowly Section D of St. Louis Tickle
TTITLE29=Teaching of final ending of Section D of St. Louis Tickle
TTITLE30=Plays up to tempo Section D of St. Louis Tickle
EXTD=YEAR: 2001
EXTT0=
EXTT1=
EXTT2=
EXTT3=
EXTT4=
EXTT5=
EXTT6=
EXTT7=
EXTT8=
EXTT9=
EXTT10=
EXTT11=
EXTT12=
EXTT13=
EXTT14=
EXTT15=
EXTT16=
EXTT17=
EXTT18=
EXTT19=
EXTT20=
EXTT21=
EXTT22=
EXTT23=
EXTT24=
EXTT25=
EXTT26=
EXTT27=
EXTT28=
EXTT29=
EXTT30=
PLAYORDER=
